<svg width="459pt" height="83pt" viewBox="0.00 0.00 459.00 83.00" xmlns="http://www.w3.org/2000/svg" xmlns:xlink="http://www.w3.org/1999/xlink">
<g id="graph0" class="graph" transform="scale(1 1) rotate(0) translate(4 78.8)">
<title>NFA</title>
<polygon fill="white" stroke="none" points="-4,4 -4,-78.8 455.02,-78.8 455.02,4 -4,4"/>
<!-- 0 -->
<g id="node1" class="node">
<title>0</title>
<ellipse fill="none" stroke="black" cx="26.43" cy="-22" rx="18" ry="18"/>
<text xml:space="preserve" text-anchor="middle" x="26.43" y="-17.8" font-family="Times,serif" font-size="14.00">0</text>
</g>
<!-- 0&#45;&gt;0 -->
<g id="edge2" class="edge">
<title>0-&gt;0</title>
<path fill="none" stroke="black" d="M13.91,-35.29C8.56,-46.4 12.73,-58 26.43,-58 35.43,-58 40.32,-53 41.1,-46.43"/>
<polygon fill="black" stroke="black" points="44.57,-45.94 39.24,-36.78 37.7,-47.26 44.57,-45.94"/>
<text xml:space="preserve" text-anchor="middle" x="26.43" y="-62.2" font-family="Times,serif" font-size="14.00">¬ pattern </text>
</g>
<!-- 1 -->
<g id="node2" class="node">
<title>1</title>
<ellipse fill="none" stroke="black" cx="184.08" cy="-22" rx="18" ry="18"/>
<text xml:space="preserve" text-anchor="middle" x="184.08" y="-17.8" font-family="Times,serif" font-size="14.00">1</text>
</g>
<!-- 0&#45;&gt;1 -->
<g id="edge1" class="edge">
<title>0-&gt;1</title>
<path fill="none" stroke="black" d="M44.69,-22C71.22,-22 122.32,-22 154.46,-22"/>
<polygon fill="black" stroke="black" points="154.24,-25.5 164.24,-22 154.24,-18.5 154.24,-25.5"/>
<text xml:space="preserve" text-anchor="middle" x="105.26" y="-26.2" font-family="Times,serif" font-size="14.00">e.type === "a" </text>
</g>
<!-- 2 -->
<g id="node3" class="node">
<title>2</title>
<ellipse fill="none" stroke="black" cx="266.58" cy="-22" rx="18" ry="18"/>
<text xml:space="preserve" text-anchor="middle" x="266.58" y="-17.8" font-family="Times,serif" font-size="14.00">2</text>
</g>
<!-- 1&#45;&gt;2 -->
<g id="edge3" class="edge">
<title>1-&gt;2</title>
<path fill="none" stroke="black" d="M202.55,-22C212.57,-22 225.4,-22 236.87,-22"/>
<polygon fill="black" stroke="black" points="236.64,-25.5 246.64,-22 236.64,-18.5 236.64,-25.5"/>
<text xml:space="preserve" text-anchor="middle" x="225.33" y="-26.2" font-family="Times,serif" font-size="14.00">ε </text>
</g>
<!-- 2&#45;&gt;2 -->
<g id="edge5" class="edge">
<title>2-&gt;2</title>
<path fill="none" stroke="black" d="M259.33,-38.66C257.72,-48.62 260.14,-58 266.58,-58 270.41,-58 272.82,-54.69 273.8,-49.92"/>
<polygon fill="black" stroke="black" points="277.3,-50.19 273.83,-40.18 270.3,-50.17 277.3,-50.19"/>
<text xml:space="preserve" text-anchor="middle" x="266.58" y="-62.2" font-family="Times,serif" font-size="14.00">¬ pattern </text>
</g>
<!-- 3 -->
<g id="node4" class="node">
<title>3</title>
<ellipse fill="none" stroke="black" cx="429.02" cy="-22" rx="18" ry="18"/>
<ellipse fill="none" stroke="black" cx="429.02" cy="-22" rx="22" ry="22"/>
<text xml:space="preserve" text-anchor="middle" x="429.02" y="-17.8" font-family="Times,serif" font-size="14.00">3</text>
</g>
<!-- 2&#45;&gt;3 -->
<g id="edge4" class="edge">
<title>2-&gt;3</title>
<path fill="none" stroke="black" d="M285.06,-22C311.46,-22 361.96,-22 395.32,-22"/>
<polygon fill="black" stroke="black" points="395.25,-25.5 405.25,-22 395.25,-18.5 395.25,-25.5"/>
<text xml:space="preserve" text-anchor="middle" x="345.8" y="-43" font-family="Times,serif" font-size="14.00">e.type === "b" </text>
<text xml:space="preserve" text-anchor="middle" x="345.8" y="-26.2" font-family="Times,serif" font-size="14.00">[5, 10] day(s)</text>
</g>
</g>
</svg>